<?xml version="1.0" encoding="UTF-8" standalone="no"?>
<!DOCTYPE svg PUBLIC "-//W3C//DTD SVG 1.1//EN" "http://www.w3.org/Graphics/SVG/1.1/DTD/svg11.dtd">
<svg width="100%" height="100%" viewBox="0 0 875 296" version="1.1" xmlns="http://www.w3.org/2000/svg" xmlns:xlink="http://www.w3.org/1999/xlink" xml:space="preserve" xmlns:serif="http://www.serif.com/" style="fill-rule:evenodd;clip-rule:evenodd;stroke-linejoin:round;stroke-miterlimit:2;">
    <g transform="matrix(1,0,0,1,-103.77,-77.1512)">
        <g transform="matrix(187.5,0,0,187.5,192.522,259.147)">
            <path d="M0.226,-0.423C0.253,-0.423 0.277,-0.42 0.3,-0.416C0.322,-0.411 0.341,-0.406 0.356,-0.4C0.371,-0.395 0.381,-0.39 0.386,-0.387L0.336,-0.297C0.33,-0.302 0.318,-0.308 0.301,-0.315C0.284,-0.322 0.265,-0.326 0.244,-0.326C0.227,-0.326 0.214,-0.323 0.203,-0.319C0.192,-0.314 0.186,-0.306 0.186,-0.296C0.186,-0.286 0.192,-0.278 0.205,-0.271C0.217,-0.265 0.234,-0.26 0.258,-0.255C0.278,-0.251 0.298,-0.245 0.319,-0.236C0.339,-0.227 0.356,-0.215 0.37,-0.198C0.384,-0.181 0.391,-0.159 0.391,-0.13C0.391,-0.102 0.385,-0.078 0.373,-0.06C0.36,-0.041 0.344,-0.026 0.323,-0.016C0.303,-0.006 0.281,0.002 0.257,0.006C0.234,0.01 0.211,0.012 0.188,0.012C0.157,0.012 0.13,0.009 0.107,0.003C0.084,-0.002 0.065,-0.009 0.051,-0.016C0.036,-0.023 0.026,-0.029 0.021,-0.033L0.069,-0.133C0.078,-0.126 0.092,-0.118 0.112,-0.109C0.132,-0.099 0.152,-0.095 0.175,-0.095C0.196,-0.095 0.212,-0.098 0.224,-0.104C0.236,-0.111 0.241,-0.119 0.241,-0.13C0.241,-0.138 0.239,-0.144 0.233,-0.149C0.228,-0.155 0.22,-0.159 0.209,-0.162C0.199,-0.166 0.186,-0.169 0.172,-0.172C0.158,-0.175 0.144,-0.18 0.129,-0.185C0.114,-0.191 0.1,-0.198 0.087,-0.208C0.073,-0.218 0.063,-0.23 0.054,-0.245C0.046,-0.261 0.042,-0.279 0.042,-0.3C0.042,-0.327 0.05,-0.35 0.068,-0.368C0.086,-0.386 0.108,-0.4 0.136,-0.409C0.165,-0.418 0.195,-0.423 0.226,-0.423Z" style="fill-rule:nonzero;"/>
        </g>
        <g transform="matrix(187.5,0,0,187.5,263.585,259.147)">
            <path d="M0.186,-0.22C0.186,-0.188 0.192,-0.162 0.204,-0.142C0.217,-0.123 0.237,-0.113 0.267,-0.113C0.296,-0.113 0.317,-0.123 0.329,-0.142C0.341,-0.162 0.348,-0.188 0.348,-0.22L0.348,-0.411L0.497,-0.411L0.497,-0.204C0.497,-0.16 0.488,-0.122 0.47,-0.09C0.452,-0.057 0.426,-0.032 0.392,-0.015C0.357,0.003 0.316,0.012 0.267,0.012C0.218,0.012 0.176,0.003 0.142,-0.015C0.108,-0.032 0.081,-0.057 0.063,-0.09C0.045,-0.122 0.036,-0.16 0.036,-0.204L0.036,-0.411L0.186,-0.411L0.186,-0.22Z" style="fill-rule:nonzero;"/>
        </g>
        <g transform="matrix(187.5,0,0,187.5,355.647,259.147)">
            <path d="M0.191,0.208L0.041,0.208L0.041,-0.411L0.193,-0.411L0.193,-0.351C0.198,-0.36 0.206,-0.37 0.22,-0.381C0.233,-0.393 0.25,-0.402 0.27,-0.41C0.291,-0.418 0.314,-0.423 0.34,-0.423C0.38,-0.423 0.414,-0.413 0.443,-0.393C0.471,-0.373 0.493,-0.347 0.509,-0.314C0.524,-0.282 0.532,-0.245 0.532,-0.205C0.532,-0.165 0.524,-0.128 0.507,-0.096C0.491,-0.063 0.468,-0.037 0.438,-0.017C0.409,0.002 0.374,0.012 0.334,0.012C0.306,0.012 0.281,0.007 0.261,-0.003C0.24,-0.013 0.225,-0.025 0.213,-0.037C0.202,-0.05 0.194,-0.06 0.191,-0.067L0.191,0.208ZM0.383,-0.205C0.383,-0.224 0.379,-0.241 0.37,-0.255C0.362,-0.27 0.351,-0.282 0.337,-0.29C0.322,-0.299 0.307,-0.303 0.289,-0.303C0.271,-0.303 0.254,-0.299 0.24,-0.29C0.225,-0.282 0.214,-0.27 0.205,-0.255C0.197,-0.24 0.193,-0.224 0.193,-0.205C0.193,-0.186 0.197,-0.17 0.205,-0.155C0.214,-0.14 0.225,-0.128 0.24,-0.12C0.254,-0.112 0.271,-0.107 0.289,-0.107C0.307,-0.107 0.322,-0.111 0.337,-0.12C0.351,-0.128 0.362,-0.14 0.37,-0.155C0.379,-0.169 0.383,-0.186 0.383,-0.205Z" style="fill-rule:nonzero;"/>
        </g>
        <g transform="matrix(187.5,0,0,187.5,455.116,259.147)">
            <path d="M0.181,-0L0.029,-0L0.029,-0.411L0.181,-0.411L0.181,-0.347L0.178,-0.347C0.181,-0.355 0.188,-0.365 0.198,-0.376C0.209,-0.388 0.223,-0.399 0.242,-0.408C0.26,-0.418 0.283,-0.423 0.31,-0.423C0.329,-0.423 0.346,-0.42 0.362,-0.414C0.378,-0.408 0.39,-0.402 0.397,-0.397L0.338,-0.273C0.334,-0.279 0.326,-0.285 0.314,-0.291C0.302,-0.297 0.287,-0.3 0.269,-0.3C0.249,-0.3 0.232,-0.295 0.219,-0.285C0.206,-0.275 0.196,-0.262 0.19,-0.248C0.184,-0.233 0.181,-0.219 0.181,-0.206L0.181,-0Z" style="fill-rule:nonzero;"/>
        </g>
        <g transform="matrix(187.5,0,0,187.5,519.335,259.147)">
            <path d="M0.36,-0L0.36,-0.067C0.357,-0.06 0.35,-0.05 0.338,-0.037C0.326,-0.025 0.31,-0.013 0.29,-0.003C0.27,0.007 0.246,0.012 0.219,0.012C0.18,0.012 0.145,0.002 0.115,-0.017C0.085,-0.037 0.061,-0.063 0.045,-0.096C0.028,-0.128 0.02,-0.165 0.02,-0.205C0.02,-0.245 0.028,-0.282 0.045,-0.314C0.061,-0.347 0.085,-0.373 0.115,-0.393C0.145,-0.413 0.18,-0.423 0.219,-0.423C0.245,-0.423 0.268,-0.418 0.287,-0.41C0.306,-0.402 0.322,-0.392 0.334,-0.381C0.346,-0.37 0.354,-0.36 0.359,-0.351L0.359,-0.411L0.51,-0.411L0.51,-0L0.36,-0ZM0.169,-0.205C0.169,-0.186 0.173,-0.169 0.182,-0.155C0.19,-0.14 0.202,-0.128 0.216,-0.12C0.231,-0.111 0.247,-0.107 0.264,-0.107C0.283,-0.107 0.299,-0.112 0.313,-0.12C0.327,-0.128 0.338,-0.14 0.346,-0.155C0.354,-0.17 0.358,-0.186 0.358,-0.205C0.358,-0.224 0.354,-0.24 0.346,-0.255C0.338,-0.27 0.327,-0.282 0.313,-0.29C0.299,-0.299 0.283,-0.303 0.264,-0.303C0.247,-0.303 0.231,-0.299 0.216,-0.29C0.202,-0.282 0.19,-0.27 0.182,-0.255C0.173,-0.241 0.169,-0.224 0.169,-0.205Z" style="fill-rule:nonzero;"/>
        </g>
        <g transform="matrix(187.5,0,0,187.5,617.585,259.147)">
            <path d="M0.218,0.012C0.178,0.012 0.144,0.002 0.114,-0.017C0.085,-0.037 0.062,-0.063 0.046,-0.096C0.03,-0.128 0.022,-0.165 0.022,-0.205C0.022,-0.245 0.03,-0.282 0.046,-0.314C0.062,-0.347 0.085,-0.373 0.114,-0.393C0.144,-0.413 0.178,-0.423 0.218,-0.423C0.244,-0.423 0.268,-0.418 0.288,-0.41C0.308,-0.402 0.325,-0.393 0.337,-0.381C0.35,-0.37 0.358,-0.36 0.361,-0.351L0.361,-0.688L0.512,-0.688L0.512,-0L0.362,-0L0.362,-0.067C0.356,-0.054 0.345,-0.042 0.331,-0.03C0.317,-0.018 0.3,-0.008 0.28,0C0.261,0.008 0.24,0.012 0.218,0.012ZM0.264,-0.107C0.283,-0.107 0.299,-0.112 0.314,-0.12C0.328,-0.128 0.34,-0.14 0.348,-0.155C0.356,-0.17 0.361,-0.186 0.361,-0.205C0.361,-0.224 0.356,-0.24 0.348,-0.255C0.34,-0.27 0.328,-0.282 0.314,-0.29C0.299,-0.299 0.283,-0.303 0.264,-0.303C0.247,-0.303 0.231,-0.299 0.217,-0.29C0.203,-0.282 0.192,-0.27 0.183,-0.255C0.175,-0.241 0.171,-0.224 0.171,-0.205C0.171,-0.186 0.175,-0.169 0.183,-0.155C0.192,-0.14 0.203,-0.128 0.217,-0.12C0.231,-0.111 0.247,-0.107 0.264,-0.107Z" style="fill-rule:nonzero;"/>
        </g>
        <g transform="matrix(187.5,0,0,187.5,714.991,259.147)">
            <path d="M0.251,0.012C0.206,0.012 0.166,0.003 0.131,-0.016C0.097,-0.034 0.069,-0.06 0.049,-0.092C0.029,-0.125 0.02,-0.162 0.02,-0.204C0.02,-0.246 0.029,-0.283 0.049,-0.316C0.069,-0.349 0.097,-0.375 0.131,-0.394C0.166,-0.413 0.206,-0.423 0.251,-0.423C0.296,-0.423 0.335,-0.413 0.37,-0.394C0.404,-0.375 0.431,-0.349 0.45,-0.316C0.47,-0.283 0.48,-0.246 0.48,-0.204C0.48,-0.162 0.47,-0.125 0.45,-0.092C0.431,-0.06 0.404,-0.034 0.37,-0.016C0.335,0.003 0.296,0.012 0.251,0.012ZM0.251,-0.113C0.268,-0.113 0.284,-0.117 0.296,-0.125C0.309,-0.132 0.319,-0.143 0.326,-0.157C0.333,-0.171 0.336,-0.187 0.336,-0.205C0.336,-0.223 0.333,-0.239 0.326,-0.253C0.319,-0.267 0.309,-0.278 0.296,-0.285C0.284,-0.293 0.268,-0.297 0.251,-0.297C0.234,-0.297 0.218,-0.293 0.206,-0.285C0.193,-0.278 0.183,-0.267 0.176,-0.253C0.169,-0.239 0.165,-0.223 0.165,-0.205C0.165,-0.187 0.169,-0.171 0.176,-0.157C0.183,-0.143 0.193,-0.132 0.206,-0.125C0.218,-0.117 0.234,-0.113 0.251,-0.113Z" style="fill-rule:nonzero;"/>
        </g>
        <g transform="matrix(187.5,0,0,187.5,804.803,259.147)">
            <path d="M0.265,-0.107C0.284,-0.107 0.299,-0.111 0.312,-0.117C0.324,-0.124 0.332,-0.129 0.336,-0.133L0.406,-0.03C0.401,-0.025 0.392,-0.02 0.379,-0.013C0.366,-0.007 0.349,-0.001 0.33,0.004C0.31,0.009 0.288,0.012 0.263,0.012C0.216,0.012 0.175,0.003 0.139,-0.015C0.103,-0.033 0.076,-0.058 0.056,-0.091C0.036,-0.123 0.026,-0.161 0.026,-0.206C0.026,-0.25 0.036,-0.288 0.056,-0.321C0.076,-0.353 0.103,-0.378 0.139,-0.396C0.175,-0.414 0.216,-0.423 0.263,-0.423C0.288,-0.423 0.31,-0.42 0.329,-0.415C0.349,-0.41 0.365,-0.404 0.378,-0.397C0.392,-0.391 0.401,-0.385 0.407,-0.38L0.336,-0.277C0.333,-0.279 0.329,-0.282 0.323,-0.286C0.317,-0.291 0.309,-0.295 0.299,-0.298C0.29,-0.301 0.278,-0.303 0.265,-0.303C0.248,-0.303 0.233,-0.299 0.219,-0.291C0.205,-0.282 0.193,-0.27 0.185,-0.256C0.176,-0.241 0.172,-0.224 0.172,-0.206C0.172,-0.187 0.176,-0.17 0.185,-0.155C0.193,-0.14 0.205,-0.128 0.219,-0.12C0.233,-0.112 0.248,-0.107 0.265,-0.107Z" style="fill-rule:nonzero;"/>
        </g>
    </g>
</svg>
